<?xml version="1.0" encoding="UTF-8" standalone="no"?><!-- Generator: Gravit.io --><svg xmlns="http://www.w3.org/2000/svg" xmlns:xlink="http://www.w3.org/1999/xlink" style="isolation:isolate" viewBox="0 0 250 250" width="250pt" height="250pt"><defs><clipPath id="_clipPath_D6c2VzlSd7fkryL05VThNoN1tO9la5oh"><rect width="250" height="250"/></clipPath></defs><g clip-path="url(#_clipPath_D6c2VzlSd7fkryL05VThNoN1tO9la5oh)"><rect x="10" y="74" width="230" height="28" transform="matrix(1,0,0,1,0,0)" fill="rgb(68,68,68)"/><path d=" M 10 95 L 240 95 L 240 240 L 10 240 L 10 95 Z  M 38 74 L 212 74 L 212 95 L 38 95 L 38 74 Z " fill-rule="evenodd" fill="rgb(51,51,51)"/><rect x="22.46" y="100" width="4.08" height="17" transform="matrix(1,0,0,1,0,0)" fill="rgb(68,68,68)"/><rect x="22.46" y="100" width="4.08" height="17" transform="matrix(0,1,-1,0,133,84)" fill="rgb(68,68,68)"/><rect x="223.46" y="100" width="4.08" height="17" transform="matrix(0,1,-1,0,334,-117)" fill="rgb(68,68,68)"/></g></svg>