<?xml version="1.0" encoding="UTF-8" standalone="no"?><!-- Generator: Gravit.io --><svg xmlns="http://www.w3.org/2000/svg" xmlns:xlink="http://www.w3.org/1999/xlink" style="isolation:isolate" viewBox="0 0 700 700" width="700pt" height="700pt"><defs><clipPath id="_clipPath_3pTBmBSK99hTOSpajf6wSFapFCt9bm4o"><rect width="700" height="700"/></clipPath></defs><g clip-path="url(#_clipPath_3pTBmBSK99hTOSpajf6wSFapFCt9bm4o)"><rect x="8.396" y="85.396" width="197.207" height="43.209" transform="matrix(0.707,-0.707,0.707,0.707,-44.321,107)" fill="rgb(0,0,0)"/><rect x="15.2" y="330.553" width="183.6" height="40.227" transform="matrix(0,-1,1,0,-243.667,457.667)" fill="rgb(0,0,0)"/><rect x="491.2" y="336.22" width="183.6" height="40.227" transform="matrix(0,-1,1,0,226.667,939.333)" fill="rgb(0,0,0)"/><rect x="484.396" y="85.396" width="197.207" height="43.209" transform="matrix(0.707,0.707,-0.707,0.707,246.417,-380.904)" fill="rgb(0,0,0)"/><rect x="484.396" y="561.396" width="197.207" height="43.209" transform="matrix(-0.707,0.707,-0.707,-0.707,1407.487,583)" fill="rgb(0,0,0)"/><rect x="8.396" y="561.396" width="197.207" height="43.209" transform="matrix(-0.707,-0.707,0.707,-0.707,-229.583,1070.904)" fill="rgb(0,0,0)"/></g></svg>