<?xml version="1.0" encoding="UTF-8" standalone="no"?><!-- Generator: Gravit.io --><svg xmlns="http://www.w3.org/2000/svg" xmlns:xlink="http://www.w3.org/1999/xlink" style="isolation:isolate" viewBox="0 0 250 250" width="250pt" height="250pt"><defs><clipPath id="_clipPath_7QKA8e4D6NT6km2Rb7761XmzEj9EfV5n"><rect width="250" height="250"/></clipPath></defs><g clip-path="url(#_clipPath_7QKA8e4D6NT6km2Rb7761XmzEj9EfV5n)"><path d=" M 142 71 C 142 44.508 163.508 23 190 23 C 216.492 23 238 44.508 238 71 C 238 97.492 216.492 119 190 119 C 163.508 119 142 97.492 142 71 Z  M 198 71 L 196 74.464 L 194 77.928 L 190 77.928 L 186 77.928 L 184 74.464 L 182 71 L 184 67.536 L 186 64.072 L 190 64.072 L 194 64.072 L 196 67.536 L 198 71 Z " fill-rule="evenodd" fill="rgb(51,51,51)"/><rect x="0" y="23" width="190" height="12" transform="matrix(1,0,0,1,0,0)" fill="rgb(51,51,51)"/><rect x="0" y="107" width="190" height="12" transform="matrix(1,0,0,1,0,0)" fill="rgb(51,51,51)"/><circle vector-effect="non-scaling-stroke" cx="190" cy="171.5" r="56.5" fill="rgb(51,51,51)"/><circle vector-effect="non-scaling-stroke" cx="68.5" cy="172.5" r="56.5" fill="rgb(51,51,51)"/></g></svg>