<?xml version="1.0" encoding="UTF-8" standalone="no"?><!-- Generator: Gravit.io --><svg xmlns="http://www.w3.org/2000/svg" xmlns:xlink="http://www.w3.org/1999/xlink" style="isolation:isolate" viewBox="0 0 250 250" width="250pt" height="250pt"><defs><clipPath id="_clipPath_KihWHIM6KhqsEr7TOmo2CFN3osGfMn4F"><rect width="250" height="250"/></clipPath></defs><g clip-path="url(#_clipPath_KihWHIM6KhqsEr7TOmo2CFN3osGfMn4F)"><path d=" M 121 169 C 121 142.508 142.508 121 169 121 C 195.492 121 217 142.508 217 169 C 217 195.492 195.492 217 169 217 C 142.508 217 121 195.492 121 169 Z  M 177 169 L 175 172.464 L 173 175.928 L 169 175.928 L 165 175.928 L 163 172.464 L 161 169 L 163 165.536 L 165 162.072 L 169 162.072 L 173 162.072 L 175 165.536 L 177 169 Z " fill-rule="evenodd" fill="rgb(170,170,170)"/><path d=" M 0 169 C 0 75.726 75.726 0 169 0 L 169 0 L 169 27.128 C 92.455 27.128 30.31 89.273 30.31 165.818 C 30.31 166.881 30.322 167.941 30.337 169 L 30.31 169 L 30.31 250 L 0 250 L 0 169 L 0 169 Z " fill-rule="evenodd" fill="rgb(170,170,170)"/></g></svg>